<svg width="21" height="20" viewBox="0 0 21 20" fill="none" xmlns="http://www.w3.org/2000/svg">
<g clip-path="url(#clip0_2_10849)">
<path d="M10.4992 0.280029C5.23278 0.280029 0.948608 4.5642 0.948608 9.8306C0.948608 15.097 5.23278 19.3812 10.4992 19.3812C15.7656 19.3812 20.0497 15.097 20.0497 9.8306C20.0497 4.5642 15.7656 0.280029 10.4992 0.280029Z" fill="black" fill-opacity="0.3"/>
<path d="M14.6777 10.6262H11.2952V14.0088C11.2952 14.4482 10.9387 14.8046 10.4994 14.8046C10.06 14.8046 9.70352 14.4482 9.70352 14.0088V10.6262H6.32098C5.8816 10.6262 5.52515 10.2698 5.52515 9.83041C5.52515 9.39103 5.8816 9.03458 6.32098 9.03458H9.70352V5.65203C9.70352 5.21266 10.06 4.8562 10.4994 4.8562C10.9387 4.8562 11.2952 5.21266 11.2952 5.65203V9.03458H14.6777C15.1171 9.03458 15.4736 9.39103 15.4736 9.83041C15.4736 10.2698 15.1171 10.6262 14.6777 10.6262Z" fill="#FAFAFA"/>
</g>
<defs>
<clipPath id="clip0_2_10849">
<rect width="19.1011" height="19.1011" fill="white" transform="translate(0.948608 0.280029)"/>
</clipPath>
</defs>
</svg>
