<svg width="24" height="22" viewBox="0 0 24 22" fill="none" xmlns="http://www.w3.org/2000/svg">
<path d="M6.98721 16.9902C5.97188 16.9354 5.99334 15.4695 6.98968 15.4202C9.81174 15.4348 17.2552 15.4394 20.167 15.4461C20.9634 15.4474 21.6457 14.8922 21.8261 14.0961L23.4913 6.75023C23.5866 6.32963 23.4918 5.89399 23.2311 5.5551C22.9704 5.2162 22.5796 5.01872 22.1589 5.01805C20.9875 5.01617 11.0443 4.95406 5.95145 4.92507L5.14906 1.84933C4.95644 1.11431 4.30401 0.600169 3.56242 0.598981L0.976199 0.594841C0.599952 0.594238 0.294421 0.906821 0.293802 1.29298C0.293184 1.67915 0.597713 1.99271 0.97396 1.99331L3.56018 1.99745C3.68785 1.99765 3.80012 2.08617 3.83312 2.21195L6.9147 14.0235C6.36951 14.043 5.86137 14.2697 5.47567 14.6701C5.07041 15.0909 4.85223 15.6483 4.86133 16.2399C4.87951 17.4229 5.83216 18.3868 6.98497 18.3886L7.97836 18.3902C7.8302 18.7081 7.74674 19.0636 7.74614 19.4388C7.74398 20.7883 8.81192 21.8879 10.1268 21.89C11.4416 21.8921 12.5131 20.7959 12.5153 19.4464C12.5159 19.0712 12.4335 18.7155 12.2863 18.3971L16.5882 18.404C16.4402 18.7218 16.3567 19.0771 16.3561 19.4522C16.354 20.8017 17.4219 21.9013 18.7368 21.9034C20.0516 21.9055 21.1231 20.8093 21.1253 19.4598C21.1259 19.0702 21.0368 18.7016 20.8789 18.374C21.1486 18.2812 21.3434 18.0205 21.3439 17.7124C21.3445 17.3263 21.04 17.0127 20.6637 17.0121L6.98721 16.9902ZM11.1527 19.4443C11.1517 20.0227 10.6925 20.4925 10.129 20.4916C9.56542 20.4907 9.10772 20.0194 9.10865 19.441C9.10957 18.8629 9.56833 18.3933 10.1315 18.3937L10.1332 18.3937C10.6963 18.3951 11.1536 18.8662 11.1527 19.4443ZM18.739 20.505C18.1755 20.5041 17.7178 20.0328 17.7187 19.4544C17.7196 18.8817 18.1699 18.4158 18.7258 18.4075L18.759 18.4075C19.3149 18.4176 19.7637 18.885 19.7628 19.4577C19.7618 20.036 19.3026 20.5059 18.739 20.505ZM22.1616 6.42165C22.1657 6.42688 22.1651 6.42935 22.1642 6.43336L21.4626 9.52869L19.1034 9.52491L19.5102 6.40123L22.1512 6.41637C22.1552 6.41647 22.1576 6.41647 22.1616 6.42165ZM15.1257 14.0395L15.1307 10.917L17.547 10.9209L17.1405 14.0427L15.1257 14.0395ZM11.7474 14.0341L11.3476 10.911L13.7681 10.9148L13.7631 14.0373L11.7474 14.0341ZM8.61108 14.0291L8.60894 14.0291C8.44289 14.0288 8.29679 13.9136 8.25385 13.7498L7.51164 10.9048L9.973 10.9088L10.3728 14.0319L8.61108 14.0291ZM11.1685 9.51225L10.7639 6.3511L13.7754 6.36837L13.7703 9.51642L11.1685 9.51225ZM15.1329 9.5186L15.1379 6.37619L18.1365 6.39339L17.7291 9.52275L15.1329 9.5186ZM9.38855 6.34317L9.79393 9.51L7.14662 9.50577L6.31692 6.32552L9.38855 6.34317ZM20.1693 14.0476L18.5148 14.0449L18.9213 10.9231L21.1456 10.9267L20.499 13.7793C20.4631 13.9375 20.3275 14.0478 20.1693 14.0476Z" fill="#433F3F" fill-opacity="0.7"/>
</svg>
