<svg width="14" height="16" viewBox="0 0 14 16" fill="none" xmlns="http://www.w3.org/2000/svg">
<path d="M9.72259 2.62874V1.38373C9.72259 0.847414 9.3012 0.426025 8.76489 0.426025H5.0107C4.47439 0.426025 4.053 0.847414 4.053 1.38373V2.62874H0.0498047V3.77798H1.25651L2.21421 14.5809C2.23336 14.8682 2.48237 15.098 2.78883 15.098H11.0059C11.3124 15.098 11.5614 14.8682 11.5805 14.5809L12.5382 3.77798H13.7641V2.62874H9.72259ZM5.20224 1.57527H8.57335V2.62874H5.20224V1.57527ZM10.4696 13.9488H3.28684L2.3866 3.77798H11.3315L10.4696 13.9488Z" fill="#FF7777"/>
<path d="M9.68462 5.48338L8.53538 5.44507L8.28638 12.2447L9.43562 12.2831L9.68462 5.48338Z" fill="#FF7777"/>
<path d="M5.49041 12.2447L5.24141 5.44507L4.09216 5.48338L4.34117 12.2831L5.49041 12.2447Z" fill="#FF7777"/>
<path d="M7.46247 5.46387H6.31323V12.2635H7.46247V5.46387Z" fill="#FF7777"/>
</svg>
