<svg width="24" height="24" viewBox="0 0 24 24" fill="none" xmlns="http://www.w3.org/2000/svg">
<path opacity="0.3" d="M10.07 2.8201L3.14002 8.37009C2.36002 8.99009 1.86002 10.3001 2.03002 11.2801L3.36002 19.2401C3.60002 20.6601 4.96002 21.8101 6.40002 21.8101H17.6C19.03 21.8101 20.4 20.6501 20.64 19.2401L21.97 11.2801C22.13 10.3001 21.63 8.99009 20.86 8.37009L13.93 2.83008C12.86 1.97008 11.13 1.9701 10.07 2.8201Z" fill="#8091B3"/>
<path d="M12 15.5C13.3807 15.5 14.5 14.3807 14.5 13C14.5 11.6193 13.3807 10.5 12 10.5C10.6193 10.5 9.5 11.6193 9.5 13C9.5 14.3807 10.6193 15.5 12 15.5Z" fill="#8091B3"/>
</svg>
