<svg width="25" height="24" viewBox="0 0 25 24" fill="none" xmlns="http://www.w3.org/2000/svg">
<path d="M22.5 6.00008V8.42008C22.5 10.0001 21.5 11.0001 19.92 11.0001H16.5V4.01008C16.5 2.90008 17.41 1.99008 18.52 2.00008C19.61 2.01008 20.61 2.45008 21.33 3.17008C22.05 3.90008 22.5 4.90008 22.5 6.00008Z" fill="#8091B3"/>
<path opacity="0.3" d="M2.5 7V21C2.5 21.83 3.44 22.3 4.1 21.8L5.81 20.52C6.21 20.22 6.77 20.26 7.13 20.62L8.79 22.29C9.18 22.68 9.82 22.68 10.21 22.29L11.89 20.61C12.24 20.26 12.8 20.22 13.19 20.52L14.9 21.8C15.56 22.29 16.5 21.82 16.5 21V4C16.5 2.9 17.4 2 18.5 2H7.5H6.5C3.5 2 2.5 3.79 2.5 6V7Z" fill="#8091B3"/>
<path d="M12.5 12.26H9.5C9.09 12.26 8.75 12.6 8.75 13.01C8.75 13.42 9.09 13.76 9.5 13.76H12.5C12.91 13.76 13.25 13.42 13.25 13.01C13.25 12.6 12.91 12.26 12.5 12.26Z" fill="#8091B3"/>
<path d="M9.5 9.76001H12.5C12.91 9.76001 13.25 9.42001 13.25 9.01001C13.25 8.60001 12.91 8.26001 12.5 8.26001H9.5C9.09 8.26001 8.75 8.60001 8.75 9.01001C8.75 9.42001 9.09 9.76001 9.5 9.76001Z" fill="#8091B3"/>
<path d="M6.46997 8.01001C5.90997 8.01001 5.46997 8.46001 5.46997 9.01001C5.46997 9.56001 5.91997 10.01 6.46997 10.01C7.01997 10.01 7.46997 9.56001 7.46997 9.01001C7.46997 8.46001 7.01997 8.01001 6.46997 8.01001Z" fill="#8091B3"/>
<path d="M6.46997 12.01C5.90997 12.01 5.46997 12.46 5.46997 13.01C5.46997 13.56 5.91997 14.01 6.46997 14.01C7.01997 14.01 7.46997 13.56 7.46997 13.01C7.46997 12.46 7.01997 12.01 6.46997 12.01Z" fill="#8091B3"/>
</svg>
