<svg width="25" height="24" viewBox="0 0 25 24" fill="none" xmlns="http://www.w3.org/2000/svg">
<path opacity="0.3" d="M12.5 22C18.0228 22 22.5 17.5228 22.5 12C22.5 6.47715 18.0228 2 12.5 2C6.97715 2 2.5 6.47715 2.5 12C2.5 17.5228 6.97715 22 12.5 22Z" fill="#8091B3"/>
<path d="M16.2099 15.93C16.0799 15.93 15.9499 15.9 15.8299 15.82L12.7299 13.97C11.9599 13.51 11.3899 12.5 11.3899 11.61V7.51001C11.3899 7.10001 11.7299 6.76001 12.1399 6.76001C12.5499 6.76001 12.8899 7.10001 12.8899 7.51001V11.61C12.8899 11.97 13.1899 12.5 13.4999 12.68L16.5999 14.53C16.9599 14.74 17.0699 15.2 16.8599 15.56C16.7099 15.8 16.4599 15.93 16.2099 15.93Z" fill="#8091B3"/>
</svg>
