<svg width="21" height="20" viewBox="0 0 21 20" fill="none" xmlns="http://www.w3.org/2000/svg">
<g clip-path="url(#clip0_206_240)">
<path d="M18.4193 16.4932L17.5262 5.23894C17.4708 4.51382 16.8573 3.94604 16.1303 3.94604L14.366 3.94604L14.366 6.55999C14.366 6.8837 14.104 7.14573 13.7803 7.14573C13.457 7.14573 13.1946 6.8837 13.1946 6.55999L13.1946 3.94604L7.80584 3.94604L7.80584 6.55999C7.80584 6.8837 7.54342 7.14573 7.2201 7.14573C6.89639 7.14573 6.63436 6.8837 6.63436 6.55999L6.63436 3.94604L4.87014 3.94604C4.14307 3.94604 3.52959 4.51382 3.47416 5.23737L2.58073 16.4948C2.51163 17.3964 2.8244 18.2937 3.43862 18.9568C4.05288 19.6198 4.92366 20.0005 5.82764 20.0005L15.1728 20.0005C16.0768 20.0005 16.9476 19.6198 17.5618 18.9567C18.176 18.2937 18.4888 17.3964 18.4193 16.4932ZM13.1391 10.762L10.1097 13.7914C9.9953 13.9058 9.84534 13.9632 9.69541 13.9632C9.54545 13.9632 9.39553 13.9058 9.28112 13.7914L7.86131 12.3716C7.63248 12.1428 7.63248 11.7722 7.86131 11.5434C8.09014 11.3145 8.46112 11.3145 8.68955 11.5434L9.69545 12.5489L12.3109 9.93339C12.5394 9.70495 12.9103 9.70495 13.1392 9.93339C13.368 10.1622 13.368 10.5332 13.1391 10.762Z" fill="#135FDC"/>
<path d="M10.5006 -0.00317383C8.36891 -0.00317383 6.63477 1.73136 6.63477 3.86304L6.63477 3.94229L7.80625 3.94229L7.80625 3.86304C7.80625 2.37722 9.0148 1.16827 10.5006 1.16827C11.9864 1.16827 13.195 2.37722 13.195 3.86304L13.195 3.94229L14.3664 3.94229L14.3664 3.86304C14.3664 1.73136 12.6323 -0.00317383 10.5006 -0.00317383Z" fill="#135FDC"/>
</g>
<defs>
<clipPath id="clip0_206_240">
<rect width="20" height="20" fill="white" transform="translate(0.5)"/>
</clipPath>
</defs>
</svg>
