<svg width="10" height="10" viewBox="0 0 10 10" fill="none" xmlns="http://www.w3.org/2000/svg">
<path d="M9.93773 9.34862L7.03316 6.44405C7.58407 5.76392 7.91569 4.89926 7.91569 3.95785C7.91569 1.77551 6.14018 0 3.95783 0C1.77549 0 0 1.77551 0 3.95785C0 6.1402 1.77551 7.91571 3.95785 7.91571C4.89926 7.91571 5.76392 7.58407 6.44405 7.03318L9.34862 9.93775C9.43 10.0191 9.56185 10.0191 9.64323 9.93775L9.93775 9.64321C10.0191 9.56185 10.0191 9.42996 9.93773 9.34862ZM3.95785 7.08247C2.23484 7.08247 0.833238 5.68087 0.833238 3.95785C0.833238 2.23484 2.23484 0.833238 3.95785 0.833238C5.68087 0.833238 7.08247 2.23484 7.08247 3.95785C7.08247 5.68087 5.68087 7.08247 3.95785 7.08247Z" fill="black" fill-opacity="0.5"/>
</svg>
